<svg id="visual" viewBox="0 0 1080 700" width="1080" height="700" xmlns="http://www.w3.org/2000/svg" xmlns:xlink="http://www.w3.org/1999/xlink" version="1.1"><path d="M0 155L16.3 145.7C32.7 136.3 65.3 117.7 98 104.8C130.7 92 163.3 85 196.2 92C229 99 262 120 294.8 125.8C327.7 131.7 360.3 122.3 393 114.2C425.7 106 458.3 99 491 97.8C523.7 96.7 556.3 101.3 589 107.2C621.7 113 654.3 120 687 128.2C719.7 136.3 752.3 145.7 785.2 151.5C818 157.3 851 159.7 883.8 155C916.7 150.3 949.3 138.7 982 122.3C1014.7 106 1047.3 85 1063.7 74.5L1080 64L1080 0L1063.7 0C1047.3 0 1014.7 0 982 0C949.3 0 916.7 0 883.8 0C851 0 818 0 785.2 0C752.3 0 719.7 0 687 0C654.3 0 621.7 0 589 0C556.3 0 523.7 0 491 0C458.3 0 425.7 0 393 0C360.3 0 327.7 0 294.8 0C262 0 229 0 196.2 0C163.3 0 130.7 0 98 0C65.3 0 32.7 0 16.3 0L0 0Z" fill="#1d2d4d"></path><path d="M0 232L16.3 219.2C32.7 206.3 65.3 180.7 98 167.8C130.7 155 163.3 155 196.2 159.7C229 164.3 262 173.7 294.8 173.7C327.7 173.7 360.3 164.3 393 157.3C425.7 150.3 458.3 145.7 491 149.2C523.7 152.7 556.3 164.3 589 170.2C621.7 176 654.3 176 687 177.2C719.7 178.3 752.3 180.7 785.2 188.8C818 197 851 211 883.8 214.5C916.7 218 949.3 211 982 192.3C1014.7 173.7 1047.3 143.3 1063.7 128.2L1080 113L1080 62L1063.7 72.5C1047.3 83 1014.7 104 982 120.3C949.3 136.7 916.7 148.3 883.8 153C851 157.7 818 155.3 785.2 149.5C752.3 143.7 719.7 134.3 687 126.2C654.3 118 621.7 111 589 105.2C556.3 99.3 523.7 94.7 491 95.8C458.3 97 425.7 104 393 112.2C360.3 120.3 327.7 129.7 294.8 123.8C262 118 229 97 196.2 90C163.3 83 130.7 90 98 102.8C65.3 115.7 32.7 134.3 16.3 143.7L0 153Z" fill="#0f1524"></path><path d="M0 274L16.3 265.8C32.7 257.7 65.3 241.3 98 234.3C130.7 227.3 163.3 229.7 196.2 237.8C229 246 262 260 294.8 267C327.7 274 360.3 274 393 265.8C425.7 257.7 458.3 241.3 491 239C523.7 236.7 556.3 248.3 589 260C621.7 271.7 654.3 283.3 687 289.2C719.7 295 752.3 295 785.2 297.3C818 299.7 851 304.3 883.8 307.8C916.7 311.3 949.3 313.7 982 290.3C1014.7 267 1047.3 218 1063.7 193.5L1080 169L1080 111L1063.7 126.2C1047.3 141.3 1014.7 171.7 982 190.3C949.3 209 916.7 216 883.8 212.5C851 209 818 195 785.2 186.8C752.3 178.7 719.7 176.3 687 175.2C654.3 174 621.7 174 589 168.2C556.3 162.3 523.7 150.7 491 147.2C458.3 143.7 425.7 148.3 393 155.3C360.3 162.3 327.7 171.7 294.8 171.7C262 171.7 229 162.3 196.2 157.7C163.3 153 130.7 153 98 165.8C65.3 178.7 32.7 204.3 16.3 217.2L0 230Z" fill="#090d19"></path><path d="M0 344L16.3 332.3C32.7 320.7 65.3 297.3 98 291.5C130.7 285.7 163.3 297.3 196.2 306.7C229 316 262 323 294.8 330C327.7 337 360.3 344 393 337C425.7 330 458.3 309 491 310.2C523.7 311.3 556.3 334.7 589 345.2C621.7 355.7 654.3 353.3 687 348.7C719.7 344 752.3 337 785.2 337C818 337 851 344 883.8 354.5C916.7 365 949.3 379 982 361.5C1014.7 344 1047.3 295 1063.7 270.5L1080 246L1080 167L1063.7 191.5C1047.3 216 1014.7 265 982 288.3C949.3 311.7 916.7 309.3 883.8 305.8C851 302.3 818 297.7 785.2 295.3C752.3 293 719.7 293 687 287.2C654.3 281.3 621.7 269.7 589 258C556.3 246.3 523.7 234.7 491 237C458.3 239.3 425.7 255.7 393 263.8C360.3 272 327.7 272 294.8 265C262 258 229 244 196.2 235.8C163.3 227.7 130.7 225.3 98 232.3C65.3 239.3 32.7 255.7 16.3 263.8L0 272Z" fill="#080c17"></path><path d="M0 512L16.3 491C32.7 470 65.3 428 98 424.5C130.7 421 163.3 456 196.2 480.5C229 505 262 519 294.8 509.7C327.7 500.3 360.3 467.7 393 443.2C425.7 418.7 458.3 402.3 491 421C523.7 439.7 556.3 493.3 589 508.5C621.7 523.7 654.3 500.3 687 495.7C719.7 491 752.3 505 785.2 519C818 533 851 547 883.8 549.3C916.7 551.7 949.3 542.3 982 523.7C1014.7 505 1047.3 477 1063.7 463L1080 449L1080 244L1063.7 268.5C1047.3 293 1014.7 342 982 359.5C949.3 377 916.7 363 883.8 352.5C851 342 818 335 785.2 335C752.3 335 719.7 342 687 346.7C654.3 351.3 621.7 353.7 589 343.2C556.3 332.7 523.7 309.3 491 308.2C458.3 307 425.7 328 393 335C360.3 342 327.7 335 294.8 328C262 321 229 314 196.2 304.7C163.3 295.3 130.7 283.7 98 289.5C65.3 295.3 32.7 318.7 16.3 330.3L0 342Z" fill="#090d19"></path><path d="M0 631L16.3 633.3C32.7 635.7 65.3 640.3 98 639.2C130.7 638 163.3 631 196.2 633.3C229 635.7 262 647.3 294.8 647.3C327.7 647.3 360.3 635.7 393 629.8C425.7 624 458.3 624 491 627.5C523.7 631 556.3 638 589 641.5C621.7 645 654.3 645 687 645C719.7 645 752.3 645 785.2 643.8C818 642.7 851 640.3 883.8 645C916.7 649.7 949.3 661.3 982 661.3C1014.7 661.3 1047.3 649.7 1063.7 643.8L1080 638L1080 447L1063.7 461C1047.3 475 1014.7 503 982 521.7C949.3 540.3 916.7 549.7 883.8 547.3C851 545 818 531 785.2 517C752.3 503 719.7 489 687 493.7C654.3 498.3 621.7 521.7 589 506.5C556.3 491.3 523.7 437.7 491 419C458.3 400.3 425.7 416.7 393 441.2C360.3 465.7 327.7 498.3 294.8 507.7C262 517 229 503 196.2 478.5C163.3 454 130.7 419 98 422.5C65.3 426 32.7 468 16.3 489L0 510Z" fill="#0f1524"></path><path d="M0 701L16.3 701C32.7 701 65.3 701 98 701C130.7 701 163.3 701 196.2 701C229 701 262 701 294.8 701C327.7 701 360.3 701 393 701C425.7 701 458.3 701 491 701C523.7 701 556.3 701 589 701C621.7 701 654.3 701 687 701C719.7 701 752.3 701 785.2 701C818 701 851 701 883.8 701C916.7 701 949.3 701 982 701C1014.7 701 1047.3 701 1063.7 701L1080 701L1080 636L1063.7 641.8C1047.3 647.7 1014.7 659.3 982 659.3C949.3 659.3 916.7 647.7 883.8 643C851 638.3 818 640.7 785.2 641.8C752.3 643 719.7 643 687 643C654.3 643 621.7 643 589 639.5C556.3 636 523.7 629 491 625.5C458.3 622 425.7 622 393 627.8C360.3 633.7 327.7 645.3 294.8 645.3C262 645.3 229 633.7 196.2 631.3C163.3 629 130.7 636 98 637.2C65.3 638.3 32.7 633.7 16.3 631.3L0 629Z" fill="#1d2d4d"></path></svg>